<?xml version="1.0" encoding="utf-8"?>
<!-- Generator: Adobe Illustrator 18.1.1, SVG Export Plug-In . SVG Version: 6.00 Build 0)  -->
<svg version="1.1" id="Layer_1" xmlns="http://www.w3.org/2000/svg" xmlns:xlink="http://www.w3.org/1999/xlink" x="0px" y="0px"
	 viewBox="0 0 171.044 108.661" enable-background="new 0 0 171.044 108.661" xml:space="preserve">
	 <linearGradient y2="0.97" x2="0.6917" id="g" spreadMethod="reflect" x1="0.475" y1="0">
<stop stop-color="#575757" offset="0.095"/>
<stop stop-color="#444342" offset="1"/>
</linearGradient>
<g>
	<path fill="url(#g)" d="M76.578,0v62.549c0,7.084-0.679,13.069-2.047,17.956c-1.358,4.89-3.277,9.004-5.748,12.344
		c-2.47,3.345-5.393,5.987-8.779,7.931c-3.376,1.946-7.037,3.518-10.974,4.715c-3.327,0.995-7.007,1.496-11.043,1.496
		c-5.049,0-9.79-0.898-14.229-2.693s-8.348-4.265-11.727-7.408c-3.383-3.141-6.132-6.807-8.25-10.999
		C1.663,81.702,0.401,77.165,0,72.275l25.122-2.245c0.704,3.194,2.018,5.788,3.934,7.782c1.917,1.997,4.591,2.992,8.021,2.992
		c1.314,0,2.574-0.272,3.784-0.822c1.211-0.547,2.273-1.272,3.179-2.17s1.634-1.946,2.195-3.143
		c0.551-1.197,0.827-2.443,0.827-3.742V19.452H33.295V0H76.578z"/>
</g>
<g>
	<path fill="url(#g)" d="M171.044,74.189c0,21.58-17.281,34.472-43.201,34.472c-19.101,0-29.861-1.799-46.84-10.193l11.219-22.484
		c13.034,6.145,24.708,7.646,36.68,7.646c7.125,0,10.917-2.249,10.917-6.746c0-3.594-2.882-6.292-16.979-9.441
		c-22.587-5.094-40.017-11.088-40.017-33.421C82.822,14.237,98.437,0,124.203,0c18.493,0,31.833,4.493,43.048,8.693l-12.426,23.232
		c-9.701-3.598-21.983-6.898-31.531-6.898c-6.364,0-9.246,2.85-9.246,6.448c0,4.195,3.031,6.444,17.281,9.592
		C156.037,46.313,171.044,54.106,171.044,74.189z"/>
</g>
</svg>
