<?xml version="1.0" encoding="utf-8"?>
<!-- Generator: Adobe Illustrator 18.1.1, SVG Export Plug-In . SVG Version: 6.00 Build 0)  -->
<svg version="1.1" id="Layer_1" xmlns="http://www.w3.org/2000/svg" xmlns:xlink="http://www.w3.org/1999/xlink" x="0px" y="0px"
	 viewBox="0 201.6 612 388.8" enable-background="new 0 201.6 612 388.8" xml:space="preserve">
<g>
	<path fill="#FFFFFF" d="M274,201.6v223.8c0,25.3-2.4,46.8-7.3,64.2c-4.9,17.5-11.7,32.2-20.6,44.2c-8.8,12-19.3,21.4-31.4,28.4
		c-12.1,7-25.2,12.6-39.3,16.9c-11.9,3.6-25.1,5.4-39.5,5.4c-18.1,0-35-3.2-50.9-9.6s-29.9-15.3-42-26.5
		c-12.1-11.2-21.9-24.4-29.5-39.4C6,493.9,1.4,477.7,0,460.2l89.9-8c2.5,11.4,7.2,20.7,14.1,27.8c6.9,7.1,16.4,10.7,28.7,10.7
		c4.7,0,9.2-1,13.5-2.9c4.3-2,8.1-4.6,11.4-7.8c3.2-3.2,5.8-7,7.9-11.2c2-4.3,3-8.7,3-13.4V271.2h-49.3v-69.6H274z"/>
</g>
<g>
	<path fill="#FFFFFF" d="M612,467.1c0,77.2-61.8,123.3-154.6,123.3c-68.3,0-106.8-6.4-167.6-36.5l40.1-80.4
		c46.6,22,88.4,27.4,131.2,27.4c25.5,0,39.1-8,39.1-24.1c0-12.9-10.3-22.5-60.8-33.8c-80.8-18.2-143.2-39.7-143.2-119.6
		c0-70.8,55.9-121.7,148.1-121.7c66.2,0,113.9,16.1,154,31.1L554,315.8c-34.7-12.9-78.7-24.7-112.8-24.7
		c-22.8,0-33.1,10.2-33.1,23.1c0,15,10.8,23.1,61.8,34.3C558.3,367.3,612,395.2,612,467.1z"/>
</g>
</svg>
